<svg xmlns="http://www.w3.org/2000/svg" width="80" height="80" viewBox="0 0 80 80">
  <g id="Grupo_65572" data-name="Grupo 65572" transform="translate(2965.958 6344.936)">
    <path id="Caminho_94833" data-name="Caminho 94833" d="M505.012,50.891,479.89,44.037a26.206,26.206,0,0,0-14.224,0l-24.439,6.8a11.348,11.348,0,0,0,3.047,22.231l57.686.021a11.349,11.349,0,0,0,3.05-22.2Zm-3.05,15.993-57.686-.021a5.077,5.077,0,0,1-1.359-9.954l24.409-6.834a20.309,20.309,0,0,1,10.908,0L503.321,56.9a5.077,5.077,0,0,1-1.359,9.987Zm-22.9,43.382a3.322,3.322,0,0,1-3.116-3.119V82.129a3.117,3.117,0,1,1,6.233,0v25.018a3.116,3.116,0,0,1-3.117,3.119Zm-12.566,0a3.116,3.116,0,0,1-3.113-3.119V82.129a3.085,3.085,0,0,1,.136-1.288,3.114,3.114,0,0,1,5.925,0,3.088,3.088,0,0,1,.136,1.288v25.018a3.113,3.113,0,0,1-3.083,3.119Zm-24.9.166a3.113,3.113,0,0,1-3.08-3.119V82.129a3.083,3.083,0,0,1,.136-1.288,3.114,3.114,0,0,1,5.925,0,3.087,3.087,0,0,1,.136,1.288v25.184a3.116,3.116,0,0,1-3.117,3.119Zm12.6-.166a3.121,3.121,0,0,1-3.117-3.119V82.129a3.117,3.117,0,1,1,6.233,0v25.018a3.116,3.116,0,0,1-3.117,3.119Zm31.872,9.645a3.116,3.116,0,0,1-3.117,3.119l-46.791.023a3.119,3.119,0,0,1,0-6.238l46.891-.023a3.114,3.114,0,0,1,3.017,3.119ZM472.861,54.589a3.882,3.882,0,1,0,2.745,1.137A3.884,3.884,0,0,0,472.861,54.589Z" transform="translate(-3399 -6387.99)" fill="#1b1b1b"/>
    <path id="Caminho_94834" data-name="Caminho 94834" d="M473.444,83.392a9.94,9.94,0,0,1-3.088,7.2,10.381,10.381,0,0,1-5.013,2.656v2.656a3.086,3.086,0,0,1-.136,1.289,3.139,3.139,0,0,1-.651,1.122,3.122,3.122,0,0,1-2.317,1.031,3.123,3.123,0,0,1-2.317-1.031,3.088,3.088,0,0,1-.647-1.122,3.144,3.144,0,0,1-.139-1.289V93.053a37.806,37.806,0,0,1-6.905-2.025,3.126,3.126,0,0,1-2.025-4.146,3.127,3.127,0,0,1,1.8-1.769,3.115,3.115,0,0,1,2.517.138,28.58,28.58,0,0,0,8.632,2.025,4.018,4.018,0,0,0,4.05-3.884,4.445,4.445,0,0,0-4.88-3.851,12.223,12.223,0,0,1-8.134-2.822,9.961,9.961,0,0,1,5.08-17.3V56.4a3.121,3.121,0,1,1,6.241,0v3.32a33.228,33.228,0,0,1,5.478,1.627,3.121,3.121,0,0,1-2.258,5.81A20.775,20.775,0,0,0,460.7,65.5a3.659,3.659,0,0,0-3.383,2.431,3.729,3.729,0,0,0-.2,1.453c0,2.324,2.092,3.851,5.212,3.851a10.653,10.653,0,0,1,11.122,10.159Z" transform="translate(-3359.796 -6364.31)" fill="#fff"/>
  </g>
</svg>
