<svg xmlns="http://www.w3.org/2000/svg" width="48" height="48" viewBox="0 0 48 48">
  <g id="Grupo_65583" data-name="Grupo 65583" transform="translate(-792 -1220)">
    <g id="Retângulo_15499" data-name="Retângulo 15499" transform="translate(792 1220)" fill="none" stroke="#e0e0e0" stroke-width="1">
      <rect width="48" height="48" rx="4" stroke="none"/>
      <rect x="0.5" y="0.5" width="47" height="47" rx="3.5" fill="none"/>
    </g>
    <g id="Grupo_65549" data-name="Grupo 65549" transform="translate(3814 6993.76)">
      <path id="Caminho_95623" data-name="Caminho 95623" d="M412.06,650.23a1,1,0,0,1-.94-.94,3.361,3.361,0,0,0-3.35-3.37H407a3.372,3.372,0,0,0-3.36,3.37.94.94,0,1,1-1.87,0,5.251,5.251,0,0,1,5.23-5.25h.79a5.251,5.251,0,0,1,5.21,5.25.939.939,0,0,1-.94.94Zm-12.18-.94a1,1,0,0,0-.94-.94h-4.32a3.749,3.749,0,0,1-3.74-3.74V631.85a3.749,3.749,0,0,1,3.74-3.74h8.63a3.751,3.751,0,0,1,3.75,3.74.94.94,0,1,0,1.88,0,5.63,5.63,0,0,0-5.63-5.62h-8.63a5.62,5.62,0,0,0-5.62,5.62v12.76a5.62,5.62,0,0,0,5.62,5.62h4.32a1,1,0,0,0,.94-.94Zm3.42-16a.939.939,0,0,0-.94-.94h-6.94a.94.94,0,1,0,0,1.88h6.94a.941.941,0,0,0,.94-1Zm-1.88,7.17a.941.941,0,0,0-.94-.93h-5.06a.94.94,0,1,0,0,1.87h5.06a.938.938,0,0,0,.877-.6.932.932,0,0,0,.063-.369Z" transform="translate(-3399 -6387.99)" fill="#1b1b1b"/>
      <path id="Caminho_95624" data-name="Caminho 95624" d="M401.42,636.87a.939.939,0,0,0-.94-.94h-5.06a.94.94,0,1,0,0,1.88h5.06a.947.947,0,0,0,.36-.071.966.966,0,0,0,.3-.2.936.936,0,0,0,.2-.3A.925.925,0,0,0,401.42,636.87Z" transform="translate(-3399 -6387.99)" fill="#fcb829"/>
      <path id="Caminho_95625" data-name="Caminho 95625" d="M401.42,644.04a.916.916,0,0,0-.072-.358.905.905,0,0,0-.2-.3.915.915,0,0,0-.305-.2.94.94,0,0,0-.359-.068h-5.06a.94.94,0,1,0,0,1.87h5.06a.939.939,0,0,0,.94-.94Z" transform="translate(-3399 -6387.99)" fill="#fcb829"/>
      <path id="Caminho_95626" data-name="Caminho 95626" d="M407.33,634.67a4,4,0,1,0,2.828,1.171A4,4,0,0,0,407.33,634.67Zm0,6.09a2.11,2.11,0,1,1,1.492-.618A2.109,2.109,0,0,1,407.33,640.76Z" transform="translate(-3399 -6387.99)" fill="#fcb829"/>
    </g>
  </g>
</svg>
