<svg xmlns="http://www.w3.org/2000/svg" width="13.955" height="13.955" viewBox="0 0 13.955 13.955">
  <path id="facebook_2_" data-name="facebook (2)" d="M12.077,0H1.883A1.881,1.881,0,0,0,0,1.88V12.075a1.88,1.88,0,0,0,1.881,1.88H6.91l.009-4.987h-1.3a.306.306,0,0,1-.306-.3L5.311,7.056a.306.306,0,0,1,.306-.307H6.91V5.2A2.538,2.538,0,0,1,9.619,2.412h1.319a.306.306,0,0,1,.306.306V4.073a.306.306,0,0,1-.306.306h-.81c-.874,0-1.044.416-1.044,1.025V6.75h1.921a.306.306,0,0,1,.3.342L11.12,8.7a.306.306,0,0,1-.3.27H9.094l-.009,4.987h2.992a1.88,1.88,0,0,0,1.88-1.88V1.88A1.881,1.881,0,0,0,12.077,0Z" transform="translate(-0.002)" fill="#fcb829"/>
</svg>
