<svg id="instagram" xmlns="http://www.w3.org/2000/svg" width="13.823" height="13.823" viewBox="0 0 13.823 13.823">
  <path id="Caminho_17207" data-name="Caminho 17207" d="M9.7,0H4.118A4.122,4.122,0,0,0,0,4.118V9.7a4.122,4.122,0,0,0,4.118,4.118H9.7A4.122,4.122,0,0,0,13.823,9.7V4.118A4.123,4.123,0,0,0,9.7,0Zm2.727,9.7A2.727,2.727,0,0,1,9.7,12.432H4.118A2.727,2.727,0,0,1,1.391,9.7V4.118A2.727,2.727,0,0,1,4.118,1.391H9.7a2.727,2.727,0,0,1,2.727,2.727V9.7Z" transform="translate(0)" fill="#fcb829"/>
  <path id="Caminho_17208" data-name="Caminho 17208" d="M136.575,133a3.575,3.575,0,1,0,3.575,3.575A3.579,3.579,0,0,0,136.575,133Zm0,5.759a2.184,2.184,0,1,1,2.184-2.184A2.184,2.184,0,0,1,136.575,138.759Z" transform="translate(-129.664 -129.664)" fill="#fcb829"/>
  <ellipse id="Elipse_111" data-name="Elipse 111" cx="0.857" cy="0.857" rx="0.857" ry="0.857" transform="translate(9.637 2.506)" fill="#fcb829"/>
</svg>
