<svg xmlns="http://www.w3.org/2000/svg" width="40.02" height="39.987" viewBox="0 0 40.02 39.987">
  <g id="Grupo_65574" data-name="Grupo 65574" transform="translate(2678 6224.99)">
    <path id="Caminho_95245" data-name="Caminho 95245" d="M759.67,181.077a4.379,4.379,0,0,0-5.648-.333l-9.2,6.9a6.2,6.2,0,0,1-7.564,0l-9.214-6.9a4.276,4.276,0,0,0-2.366-.866,4.481,4.481,0,0,0-3.332,1.2,4.344,4.344,0,0,0-1.35,3.166v9.38a9.363,9.363,0,0,0,9.4,9.364h21.26a9.363,9.363,0,0,0,9.364-9.364v-9.38a4.345,4.345,0,0,0-1.349-3.166Zm-1.783,12.546a6.249,6.249,0,0,1-6.231,6.231H730.4a6.249,6.249,0,0,1-6.231-6.231v-9.38a1.228,1.228,0,0,1,.092-.488,1.206,1.206,0,0,1,.275-.412,1.328,1.328,0,0,1,.883-.35,1.272,1.272,0,0,1,.666.25l9.2,6.9a9.4,9.4,0,0,0,11.363,0l9.2-6.9a1.272,1.272,0,0,1,.667-.25,1.316,1.316,0,0,1,.95.35,1.2,1.2,0,0,1,.275.412,1.226,1.226,0,0,1,.092.488v9.38ZM724.932,175.3v-2.932a9.381,9.381,0,0,1,9.43-9.364h13.579a9.378,9.378,0,0,1,9.38,9.364v2.9a1.566,1.566,0,1,1-3.116,0v-2.9a6.263,6.263,0,0,0-6.265-6.231H734.362a6.249,6.249,0,0,0-6.248,6.231v2.9a1.566,1.566,0,1,1-3.132,0Z" transform="translate(-3399 -6387.99)" fill="#1b1b1b"/>
    <path id="Caminho_95246" data-name="Caminho 95246" d="M733.421,180.952v-.2a12.9,12.9,0,0,1-2.049-.616,1.583,1.583,0,0,1-.572-.307,1.574,1.574,0,0,1-.555-1.136,1.574,1.574,0,0,1,.108-.638,1.566,1.566,0,0,1,.9-.888,1.576,1.576,0,0,1,.64-.1,1.552,1.552,0,0,1,.625.168,8.221,8.221,0,0,0,2.666.583.788.788,0,0,0,.553-.23.789.789,0,0,0,.17-.253.816.816,0,0,0,.06-.3c0-.433-.467-.766-1.066-.766a4.116,4.116,0,0,1-4.049-2.323,4.1,4.1,0,0,1-.4-1.593,3.9,3.9,0,0,1,2.966-3.782v-.117a1.566,1.566,0,0,1,3.132,0v.283a10.506,10.506,0,0,1,1.349.45,1.556,1.556,0,0,1-1.133,2.9,6.3,6.3,0,0,0-2.4-.516.78.78,0,0,0-.783.783c0,.45.567.783,1.316.783a4,4,0,0,1,4.182,3.932,3.9,3.9,0,0,1-2.532,3.665v.25a1.566,1.566,0,0,1-3.132,0Z" transform="translate(-3392.842 -6385.398)" fill="#fff"/>
  </g>
</svg>
