<svg xmlns="http://www.w3.org/2000/svg" xmlns:xlink="http://www.w3.org/1999/xlink" width="107" zoomAndPan="magnify" viewBox="0 0 80.25 30.75" height="41" preserveAspectRatio="xMidYMid meet" version="1.0"><defs><g/><clipPath id="589a7ad20a"><path d="M 1 6.367188 L 15 6.367188 L 15 16 L 1 16 Z M 1 6.367188 " clip-rule="nonzero"/></clipPath><clipPath id="5f536a8328"><path d="M 1 13 L 16 13 L 16 21.972656 L 1 21.972656 Z M 1 13 " clip-rule="nonzero"/></clipPath></defs><g clip-path="url(#589a7ad20a)"><path fill="#ffde59" d="M 7.019531 15.324219 C 7.019531 15.324219 4.726562 15.472656 3.183594 14.800781 C 0.648438 13.695312 0.417969 10.742188 5.835938 10.296875 C 9.253906 10.019531 13.9375 9.554688 14.785156 6.367188 C 14.785156 6.367188 16.265625 10.417969 7.269531 12.390625 C 0.00390625 13.980469 7.019531 15.324219 7.019531 15.324219 " fill-opacity="1" fill-rule="nonzero"/></g><g clip-path="url(#5f536a8328)"><path fill="#ffde59" d="M 9.605469 13.269531 C 9.605469 13.269531 11.898438 13.121094 13.441406 13.792969 C 15.976562 14.898438 16.207031 17.851562 10.789062 18.296875 C 7.371094 18.574219 2.6875 19.039062 1.839844 22.226562 C 1.839844 22.226562 0.359375 18.175781 9.355469 16.203125 C 16.625 14.613281 9.605469 13.269531 9.605469 13.269531 " fill-opacity="1" fill-rule="nonzero"/></g><g fill="#000000" fill-opacity="1"><g transform="translate(16.636204, 19.012361)"><g><path d="M 10.0625 -4.75 C 10.0625 -3.769531 9.867188 -2.90625 9.484375 -2.15625 C 9.097656 -1.414062 8.539062 -0.847656 7.8125 -0.453125 C 7.09375 -0.0546875 6.253906 0.140625 5.296875 0.140625 C 3.816406 0.140625 2.65625 -0.296875 1.8125 -1.171875 C 0.976562 -2.046875 0.5625 -3.238281 0.5625 -4.75 C 0.5625 -6.257812 0.976562 -7.4375 1.8125 -8.28125 C 2.65625 -9.125 3.820312 -9.546875 5.3125 -9.546875 C 6.800781 -9.546875 7.960938 -9.117188 8.796875 -8.265625 C 9.640625 -7.410156 10.0625 -6.238281 10.0625 -4.75 Z M 8.046875 -4.75 C 8.046875 -5.757812 7.804688 -6.550781 7.328125 -7.125 C 6.847656 -7.707031 6.175781 -8 5.3125 -8 C 4.425781 -8 3.742188 -7.710938 3.265625 -7.140625 C 2.785156 -6.566406 2.546875 -5.769531 2.546875 -4.75 C 2.546875 -3.71875 2.789062 -2.90625 3.28125 -2.3125 C 3.769531 -1.71875 4.441406 -1.421875 5.296875 -1.421875 C 6.171875 -1.421875 6.847656 -1.707031 7.328125 -2.28125 C 7.804688 -2.863281 8.046875 -3.6875 8.046875 -4.75 Z M 8.046875 -4.75 "/></g></g></g><g fill="#000000" fill-opacity="1"><g transform="translate(27.269597, 19.012361)"><g><path d="M 0.921875 0 L 0.921875 -9.40625 L 2.890625 -9.40625 L 2.890625 -1.515625 L 7.9375 -1.515625 L 7.9375 0 Z M 0.921875 0 "/></g></g></g><g fill="#000000" fill-opacity="1"><g transform="translate(35.620114, 19.012361)"><g><path d="M 4.828125 0.140625 C 3.535156 0.140625 2.546875 -0.175781 1.859375 -0.8125 C 1.171875 -1.445312 0.828125 -2.351562 0.828125 -3.53125 L 0.828125 -9.40625 L 2.796875 -9.40625 L 2.796875 -3.671875 C 2.796875 -2.929688 2.972656 -2.367188 3.328125 -1.984375 C 3.679688 -1.597656 4.195312 -1.40625 4.875 -1.40625 C 5.582031 -1.40625 6.125 -1.601562 6.5 -2 C 6.875 -2.40625 7.0625 -2.988281 7.0625 -3.75 L 7.0625 -9.40625 L 9.03125 -9.40625 L 9.03125 -3.625 C 9.03125 -2.425781 8.660156 -1.5 7.921875 -0.84375 C 7.191406 -0.1875 6.160156 0.140625 4.828125 0.140625 Z M 4.828125 0.140625 "/></g></g></g><g fill="#000000" fill-opacity="1"><g transform="translate(45.492549, 19.012361)"><g><path d="M 5.15625 -7.890625 L 5.15625 0 L 3.1875 0 L 3.1875 -7.890625 L 0.15625 -7.890625 L 0.15625 -9.40625 L 8.203125 -9.40625 L 8.203125 -7.890625 Z M 5.15625 -7.890625 "/></g></g></g><g fill="#000000" fill-opacity="1"><g transform="translate(53.843067, 19.012361)"><g><path d="M 0.921875 0 L 0.921875 -9.40625 L 2.890625 -9.40625 L 2.890625 0 Z M 0.921875 0 "/></g></g></g><g fill="#000000" fill-opacity="1"><g transform="translate(57.641184, 19.012361)"><g><path d="M 10.0625 -4.75 C 10.0625 -3.769531 9.867188 -2.90625 9.484375 -2.15625 C 9.097656 -1.414062 8.539062 -0.847656 7.8125 -0.453125 C 7.09375 -0.0546875 6.253906 0.140625 5.296875 0.140625 C 3.816406 0.140625 2.65625 -0.296875 1.8125 -1.171875 C 0.976562 -2.046875 0.5625 -3.238281 0.5625 -4.75 C 0.5625 -6.257812 0.976562 -7.4375 1.8125 -8.28125 C 2.65625 -9.125 3.820312 -9.546875 5.3125 -9.546875 C 6.800781 -9.546875 7.960938 -9.117188 8.796875 -8.265625 C 9.640625 -7.410156 10.0625 -6.238281 10.0625 -4.75 Z M 8.046875 -4.75 C 8.046875 -5.757812 7.804688 -6.550781 7.328125 -7.125 C 6.847656 -7.707031 6.175781 -8 5.3125 -8 C 4.425781 -8 3.742188 -7.710938 3.265625 -7.140625 C 2.785156 -6.566406 2.546875 -5.769531 2.546875 -4.75 C 2.546875 -3.71875 2.789062 -2.90625 3.28125 -2.3125 C 3.769531 -1.71875 4.441406 -1.421875 5.296875 -1.421875 C 6.171875 -1.421875 6.847656 -1.707031 7.328125 -2.28125 C 7.804688 -2.863281 8.046875 -3.6875 8.046875 -4.75 Z M 8.046875 -4.75 "/></g></g></g><g fill="#000000" fill-opacity="1"><g transform="translate(68.274577, 19.012361)"><g><path d="M 6.640625 0 L 2.546875 -7.25 C 2.617188 -6.539062 2.65625 -5.972656 2.65625 -5.546875 L 2.65625 0 L 0.921875 0 L 0.921875 -9.40625 L 3.171875 -9.40625 L 7.328125 -2.109375 C 7.242188 -2.773438 7.203125 -3.382812 7.203125 -3.9375 L 7.203125 -9.40625 L 8.953125 -9.40625 L 8.953125 0 Z M 6.640625 0 "/></g></g></g><path stroke-linecap="butt" transform="matrix(0.743056, -0.000000000000000184, 0.000000000000000184, 0.743056, 5.349637, 21.192815)" fill="none" stroke-linejoin="miter" d="M 0.00259142 0.497519 L 96.221637 0.497519 " stroke="#000000" stroke-width="1" stroke-opacity="1" stroke-miterlimit="4"/><g fill="#000000" fill-opacity="1"><g transform="translate(7.933081, 25.544039)"><g><path d="M 0.703125 -0.3125 C 0.703125 -0.238281 0.707031 -0.179688 0.71875 -0.140625 C 0.738281 -0.109375 0.769531 -0.0820312 0.8125 -0.0625 C 0.863281 -0.0507812 0.9375 -0.046875 1.03125 -0.046875 C 1.03125 -0.046875 1.03125 -0.0351562 1.03125 -0.015625 C 1.03125 -0.00390625 1.03125 0 1.03125 0 C 0.9375 0 0.863281 0 0.8125 0 L 0.296875 0 C 0.242188 0 0.179688 0 0.109375 0 C 0.0976562 0 0.09375 -0.00390625 0.09375 -0.015625 C 0.09375 -0.0351562 0.0976562 -0.046875 0.109375 -0.046875 C 0.171875 -0.046875 0.21875 -0.0507812 0.25 -0.0625 C 0.289062 -0.0703125 0.316406 -0.09375 0.328125 -0.125 C 0.335938 -0.164062 0.34375 -0.222656 0.34375 -0.296875 L 0.34375 -1.40625 C 0.34375 -1.476562 0.332031 -1.53125 0.3125 -1.5625 C 0.300781 -1.59375 0.28125 -1.613281 0.25 -1.625 C 0.21875 -1.644531 0.171875 -1.65625 0.109375 -1.65625 C 0.0976562 -1.65625 0.09375 -1.660156 0.09375 -1.671875 C 0.09375 -1.691406 0.0976562 -1.703125 0.109375 -1.703125 L 0.28125 -1.6875 C 0.382812 -1.6875 0.460938 -1.6875 0.515625 -1.6875 C 0.578125 -1.6875 0.644531 -1.691406 0.71875 -1.703125 C 0.738281 -1.703125 0.773438 -1.703125 0.828125 -1.703125 C 0.878906 -1.703125 0.921875 -1.703125 0.953125 -1.703125 C 1.160156 -1.703125 1.316406 -1.664062 1.421875 -1.59375 C 1.535156 -1.53125 1.59375 -1.429688 1.59375 -1.296875 C 1.59375 -1.179688 1.5625 -1.078125 1.5 -0.984375 C 1.445312 -0.898438 1.375 -0.835938 1.28125 -0.796875 C 1.1875 -0.753906 1.082031 -0.734375 0.96875 -0.734375 C 0.925781 -0.734375 0.898438 -0.738281 0.890625 -0.75 C 0.878906 -0.75 0.875 -0.753906 0.875 -0.765625 C 0.875 -0.785156 0.882812 -0.796875 0.90625 -0.796875 L 0.953125 -0.796875 C 1.023438 -0.796875 1.082031 -0.828125 1.125 -0.890625 C 1.164062 -0.960938 1.1875 -1.070312 1.1875 -1.21875 C 1.1875 -1.363281 1.160156 -1.46875 1.109375 -1.53125 C 1.054688 -1.601562 0.976562 -1.640625 0.875 -1.640625 C 0.8125 -1.640625 0.765625 -1.625 0.734375 -1.59375 C 0.710938 -1.5625 0.703125 -1.492188 0.703125 -1.390625 Z M 0.703125 -0.3125 "/></g></g></g><g fill="#000000" fill-opacity="1"><g transform="translate(11.125787, 25.544039)"><g><path d="M 2.046875 -0.046875 C 2.054688 -0.046875 2.0625 -0.0351562 2.0625 -0.015625 C 2.0625 -0.00390625 2.054688 0 2.046875 0 L 1.453125 0 C 1.421875 0 1.359375 -0.0703125 1.265625 -0.21875 C 1.171875 -0.363281 1.0625 -0.5625 0.9375 -0.8125 C 0.882812 -0.8125 0.832031 -0.8125 0.78125 -0.8125 L 0.71875 -0.8125 L 0.71875 -0.296875 C 0.71875 -0.222656 0.722656 -0.164062 0.734375 -0.125 C 0.742188 -0.09375 0.765625 -0.0703125 0.796875 -0.0625 C 0.828125 -0.0507812 0.875 -0.046875 0.9375 -0.046875 C 0.945312 -0.046875 0.953125 -0.0351562 0.953125 -0.015625 C 0.953125 -0.00390625 0.945312 0 0.9375 0 C 0.863281 0 0.804688 0 0.765625 0 L 0.296875 0 C 0.242188 0 0.179688 0 0.109375 0 C 0.0976562 0 0.09375 -0.00390625 0.09375 -0.015625 C 0.09375 -0.0351562 0.0976562 -0.046875 0.109375 -0.046875 C 0.171875 -0.046875 0.21875 -0.0507812 0.25 -0.0625 C 0.28125 -0.0703125 0.300781 -0.09375 0.3125 -0.125 C 0.332031 -0.164062 0.34375 -0.222656 0.34375 -0.296875 L 0.34375 -1.40625 C 0.34375 -1.476562 0.335938 -1.53125 0.328125 -1.5625 C 0.316406 -1.59375 0.296875 -1.613281 0.265625 -1.625 C 0.234375 -1.644531 0.179688 -1.65625 0.109375 -1.65625 C 0.109375 -1.65625 0.109375 -1.660156 0.109375 -1.671875 C 0.109375 -1.691406 0.109375 -1.703125 0.109375 -1.703125 L 0.296875 -1.6875 C 0.390625 -1.6875 0.46875 -1.6875 0.53125 -1.6875 C 0.570312 -1.6875 0.609375 -1.6875 0.640625 -1.6875 C 0.679688 -1.6875 0.71875 -1.691406 0.75 -1.703125 C 0.832031 -1.703125 0.910156 -1.703125 0.984375 -1.703125 C 1.171875 -1.703125 1.3125 -1.671875 1.40625 -1.609375 C 1.507812 -1.554688 1.5625 -1.472656 1.5625 -1.359375 C 1.5625 -1.265625 1.53125 -1.175781 1.46875 -1.09375 C 1.40625 -1.007812 1.320312 -0.945312 1.21875 -0.90625 C 1.34375 -0.675781 1.453125 -0.5 1.546875 -0.375 C 1.648438 -0.257812 1.738281 -0.175781 1.8125 -0.125 C 1.882812 -0.0703125 1.960938 -0.046875 2.046875 -0.046875 Z M 0.71875 -0.875 C 0.738281 -0.875 0.769531 -0.875 0.8125 -0.875 C 0.945312 -0.875 1.039062 -0.90625 1.09375 -0.96875 C 1.144531 -1.03125 1.171875 -1.128906 1.171875 -1.265625 C 1.171875 -1.515625 1.078125 -1.640625 0.890625 -1.640625 C 0.835938 -1.640625 0.800781 -1.628906 0.78125 -1.609375 C 0.757812 -1.597656 0.742188 -1.578125 0.734375 -1.546875 C 0.722656 -1.515625 0.71875 -1.460938 0.71875 -1.390625 Z M 0.71875 -0.875 "/></g></g></g><g fill="#000000" fill-opacity="1"><g transform="translate(14.593535, 25.544039)"><g><path d="M 1 0.046875 C 0.820312 0.046875 0.664062 0.00390625 0.53125 -0.078125 C 0.394531 -0.160156 0.289062 -0.269531 0.21875 -0.40625 C 0.144531 -0.539062 0.109375 -0.6875 0.109375 -0.84375 C 0.109375 -1.03125 0.15625 -1.191406 0.25 -1.328125 C 0.34375 -1.460938 0.460938 -1.5625 0.609375 -1.625 C 0.765625 -1.695312 0.921875 -1.734375 1.078125 -1.734375 C 1.242188 -1.734375 1.394531 -1.691406 1.53125 -1.609375 C 1.664062 -1.523438 1.769531 -1.414062 1.84375 -1.28125 C 1.914062 -1.15625 1.953125 -1.015625 1.953125 -0.859375 C 1.953125 -0.703125 1.90625 -0.550781 1.8125 -0.40625 C 1.726562 -0.269531 1.613281 -0.160156 1.46875 -0.078125 C 1.332031 0.00390625 1.175781 0.046875 1 0.046875 Z M 1.078125 -0.046875 C 1.210938 -0.046875 1.320312 -0.109375 1.40625 -0.234375 C 1.488281 -0.367188 1.53125 -0.554688 1.53125 -0.796875 C 1.53125 -0.953125 1.503906 -1.09375 1.453125 -1.21875 C 1.410156 -1.351562 1.34375 -1.457031 1.25 -1.53125 C 1.164062 -1.613281 1.066406 -1.65625 0.953125 -1.65625 C 0.804688 -1.65625 0.695312 -1.59375 0.625 -1.46875 C 0.550781 -1.351562 0.515625 -1.179688 0.515625 -0.953125 C 0.515625 -0.785156 0.539062 -0.628906 0.59375 -0.484375 C 0.644531 -0.347656 0.710938 -0.238281 0.796875 -0.15625 C 0.878906 -0.0820312 0.972656 -0.046875 1.078125 -0.046875 Z M 1.078125 -0.046875 "/></g></g></g><g fill="#000000" fill-opacity="1"><g transform="translate(18.133659, 25.544039)"><g><path d="M 2.375 -0.046875 C 2.375 -0.046875 2.375 -0.0351562 2.375 -0.015625 C 2.375 -0.00390625 2.375 0 2.375 0 C 2.3125 0 2.257812 0 2.21875 0 L 1.75 0 C 1.707031 0 1.648438 0 1.578125 0 C 1.578125 0 1.578125 -0.00390625 1.578125 -0.015625 C 1.578125 -0.0351562 1.578125 -0.046875 1.578125 -0.046875 C 1.671875 -0.046875 1.734375 -0.0546875 1.765625 -0.078125 C 1.796875 -0.0976562 1.8125 -0.148438 1.8125 -0.234375 L 1.8125 -0.296875 L 1.75 -1.40625 L 1.1875 -0.03125 C 1.175781 -0.0195312 1.164062 -0.015625 1.15625 -0.015625 C 1.144531 -0.015625 1.132812 -0.0195312 1.125 -0.03125 L 0.453125 -1.34375 L 0.4375 -0.453125 C 0.425781 -0.316406 0.441406 -0.210938 0.484375 -0.140625 C 0.535156 -0.078125 0.609375 -0.046875 0.703125 -0.046875 C 0.710938 -0.046875 0.71875 -0.0351562 0.71875 -0.015625 C 0.71875 -0.00390625 0.710938 0 0.703125 0 C 0.640625 0 0.59375 0 0.5625 0 L 0.21875 0 C 0.1875 0 0.140625 0 0.078125 0 C 0.0664062 0 0.0625 -0.00390625 0.0625 -0.015625 C 0.0625 -0.0351562 0.0664062 -0.046875 0.078125 -0.046875 C 0.171875 -0.046875 0.238281 -0.078125 0.28125 -0.140625 C 0.332031 -0.210938 0.359375 -0.316406 0.359375 -0.453125 L 0.375 -1.46875 C 0.289062 -1.59375 0.191406 -1.65625 0.078125 -1.65625 C 0.078125 -1.65625 0.078125 -1.660156 0.078125 -1.671875 C 0.078125 -1.691406 0.078125 -1.703125 0.078125 -1.703125 L 0.390625 -1.6875 L 0.609375 -1.703125 C 0.640625 -1.703125 0.664062 -1.6875 0.6875 -1.65625 C 0.707031 -1.632812 0.738281 -1.585938 0.78125 -1.515625 L 1.3125 -0.5 L 1.75 -1.609375 C 1.757812 -1.628906 1.773438 -1.648438 1.796875 -1.671875 C 1.816406 -1.691406 1.835938 -1.703125 1.859375 -1.703125 L 2.09375 -1.6875 L 2.359375 -1.703125 C 2.367188 -1.703125 2.375 -1.691406 2.375 -1.671875 C 2.375 -1.660156 2.367188 -1.65625 2.359375 -1.65625 C 2.273438 -1.65625 2.210938 -1.640625 2.171875 -1.609375 C 2.128906 -1.578125 2.113281 -1.507812 2.125 -1.40625 L 2.1875 -0.296875 C 2.195312 -0.222656 2.203125 -0.164062 2.203125 -0.125 C 2.210938 -0.09375 2.226562 -0.0703125 2.25 -0.0625 C 2.28125 -0.0507812 2.320312 -0.046875 2.375 -0.046875 Z M 2.375 -0.046875 "/></g></g></g><g fill="#000000" fill-opacity="1"><g transform="translate(22.100824, 25.544039)"><g><path d="M 1 0.046875 C 0.820312 0.046875 0.664062 0.00390625 0.53125 -0.078125 C 0.394531 -0.160156 0.289062 -0.269531 0.21875 -0.40625 C 0.144531 -0.539062 0.109375 -0.6875 0.109375 -0.84375 C 0.109375 -1.03125 0.15625 -1.191406 0.25 -1.328125 C 0.34375 -1.460938 0.460938 -1.5625 0.609375 -1.625 C 0.765625 -1.695312 0.921875 -1.734375 1.078125 -1.734375 C 1.242188 -1.734375 1.394531 -1.691406 1.53125 -1.609375 C 1.664062 -1.523438 1.769531 -1.414062 1.84375 -1.28125 C 1.914062 -1.15625 1.953125 -1.015625 1.953125 -0.859375 C 1.953125 -0.703125 1.90625 -0.550781 1.8125 -0.40625 C 1.726562 -0.269531 1.613281 -0.160156 1.46875 -0.078125 C 1.332031 0.00390625 1.175781 0.046875 1 0.046875 Z M 1.078125 -0.046875 C 1.210938 -0.046875 1.320312 -0.109375 1.40625 -0.234375 C 1.488281 -0.367188 1.53125 -0.554688 1.53125 -0.796875 C 1.53125 -0.953125 1.503906 -1.09375 1.453125 -1.21875 C 1.410156 -1.351562 1.34375 -1.457031 1.25 -1.53125 C 1.164062 -1.613281 1.066406 -1.65625 0.953125 -1.65625 C 0.804688 -1.65625 0.695312 -1.59375 0.625 -1.46875 C 0.550781 -1.351562 0.515625 -1.179688 0.515625 -0.953125 C 0.515625 -0.785156 0.539062 -0.628906 0.59375 -0.484375 C 0.644531 -0.347656 0.710938 -0.238281 0.796875 -0.15625 C 0.878906 -0.0820312 0.972656 -0.046875 1.078125 -0.046875 Z M 1.078125 -0.046875 "/></g></g></g><g fill="#000000" fill-opacity="1"><g transform="translate(25.640949, 25.544039)"><g><path d="M 0.59375 -1.625 C 0.5 -1.625 0.410156 -1.582031 0.328125 -1.5 C 0.242188 -1.425781 0.175781 -1.320312 0.125 -1.1875 C 0.125 -1.1875 0.117188 -1.1875 0.109375 -1.1875 C 0.0976562 -1.1875 0.09375 -1.1875 0.09375 -1.1875 C 0.101562 -1.269531 0.113281 -1.375 0.125 -1.5 C 0.132812 -1.625 0.140625 -1.71875 0.140625 -1.78125 C 0.140625 -1.789062 0.144531 -1.796875 0.15625 -1.796875 C 0.175781 -1.796875 0.1875 -1.789062 0.1875 -1.78125 C 0.1875 -1.75 0.203125 -1.726562 0.234375 -1.71875 C 0.273438 -1.707031 0.320312 -1.703125 0.375 -1.703125 C 0.582031 -1.703125 0.765625 -1.703125 0.921875 -1.703125 L 1.234375 -1.703125 C 1.273438 -1.703125 1.332031 -1.703125 1.40625 -1.703125 C 1.5 -1.703125 1.566406 -1.707031 1.609375 -1.71875 C 1.660156 -1.726562 1.691406 -1.753906 1.703125 -1.796875 C 1.703125 -1.796875 1.707031 -1.796875 1.71875 -1.796875 C 1.738281 -1.796875 1.75 -1.796875 1.75 -1.796875 L 1.734375 -1.609375 C 1.722656 -1.398438 1.71875 -1.257812 1.71875 -1.1875 C 1.71875 -1.1875 1.707031 -1.1875 1.6875 -1.1875 C 1.675781 -1.1875 1.671875 -1.1875 1.671875 -1.1875 C 1.660156 -1.269531 1.628906 -1.34375 1.578125 -1.40625 C 1.535156 -1.46875 1.484375 -1.519531 1.421875 -1.5625 C 1.367188 -1.601562 1.3125 -1.625 1.25 -1.625 C 1.195312 -1.625 1.160156 -1.609375 1.140625 -1.578125 C 1.117188 -1.546875 1.109375 -1.488281 1.109375 -1.40625 L 1.109375 -0.296875 C 1.109375 -0.222656 1.113281 -0.164062 1.125 -0.125 C 1.144531 -0.09375 1.171875 -0.0703125 1.203125 -0.0625 C 1.242188 -0.0507812 1.300781 -0.046875 1.375 -0.046875 C 1.382812 -0.046875 1.390625 -0.0351562 1.390625 -0.015625 C 1.390625 -0.00390625 1.382812 0 1.375 0 C 1.300781 0 1.238281 0 1.1875 0 L 0.65625 0 C 0.601562 0 0.535156 0 0.453125 0 C 0.453125 0 0.453125 -0.00390625 0.453125 -0.015625 C 0.453125 -0.0351562 0.453125 -0.046875 0.453125 -0.046875 C 0.535156 -0.046875 0.59375 -0.0507812 0.625 -0.0625 C 0.664062 -0.0703125 0.691406 -0.09375 0.703125 -0.125 C 0.722656 -0.164062 0.734375 -0.222656 0.734375 -0.296875 L 0.734375 -1.40625 C 0.734375 -1.5 0.722656 -1.554688 0.703125 -1.578125 C 0.691406 -1.609375 0.65625 -1.625 0.59375 -1.625 Z M 0.59375 -1.625 "/></g></g></g><g fill="#000000" fill-opacity="1"><g transform="translate(28.945843, 25.544039)"><g><path d="M 1 0.046875 C 0.820312 0.046875 0.664062 0.00390625 0.53125 -0.078125 C 0.394531 -0.160156 0.289062 -0.269531 0.21875 -0.40625 C 0.144531 -0.539062 0.109375 -0.6875 0.109375 -0.84375 C 0.109375 -1.03125 0.15625 -1.191406 0.25 -1.328125 C 0.34375 -1.460938 0.460938 -1.5625 0.609375 -1.625 C 0.765625 -1.695312 0.921875 -1.734375 1.078125 -1.734375 C 1.242188 -1.734375 1.394531 -1.691406 1.53125 -1.609375 C 1.664062 -1.523438 1.769531 -1.414062 1.84375 -1.28125 C 1.914062 -1.15625 1.953125 -1.015625 1.953125 -0.859375 C 1.953125 -0.703125 1.90625 -0.550781 1.8125 -0.40625 C 1.726562 -0.269531 1.613281 -0.160156 1.46875 -0.078125 C 1.332031 0.00390625 1.175781 0.046875 1 0.046875 Z M 1.078125 -0.046875 C 1.210938 -0.046875 1.320312 -0.109375 1.40625 -0.234375 C 1.488281 -0.367188 1.53125 -0.554688 1.53125 -0.796875 C 1.53125 -0.953125 1.503906 -1.09375 1.453125 -1.21875 C 1.410156 -1.351562 1.34375 -1.457031 1.25 -1.53125 C 1.164062 -1.613281 1.066406 -1.65625 0.953125 -1.65625 C 0.804688 -1.65625 0.695312 -1.59375 0.625 -1.46875 C 0.550781 -1.351562 0.515625 -1.179688 0.515625 -0.953125 C 0.515625 -0.785156 0.539062 -0.628906 0.59375 -0.484375 C 0.644531 -0.347656 0.710938 -0.238281 0.796875 -0.15625 C 0.878906 -0.0820312 0.972656 -0.046875 1.078125 -0.046875 Z M 1.078125 -0.046875 "/></g></g></g><g fill="#000000" fill-opacity="1"><g transform="translate(32.485967, 25.544039)"><g><path d="M 2.046875 -0.046875 C 2.054688 -0.046875 2.0625 -0.0351562 2.0625 -0.015625 C 2.0625 -0.00390625 2.054688 0 2.046875 0 L 1.453125 0 C 1.421875 0 1.359375 -0.0703125 1.265625 -0.21875 C 1.171875 -0.363281 1.0625 -0.5625 0.9375 -0.8125 C 0.882812 -0.8125 0.832031 -0.8125 0.78125 -0.8125 L 0.71875 -0.8125 L 0.71875 -0.296875 C 0.71875 -0.222656 0.722656 -0.164062 0.734375 -0.125 C 0.742188 -0.09375 0.765625 -0.0703125 0.796875 -0.0625 C 0.828125 -0.0507812 0.875 -0.046875 0.9375 -0.046875 C 0.945312 -0.046875 0.953125 -0.0351562 0.953125 -0.015625 C 0.953125 -0.00390625 0.945312 0 0.9375 0 C 0.863281 0 0.804688 0 0.765625 0 L 0.296875 0 C 0.242188 0 0.179688 0 0.109375 0 C 0.0976562 0 0.09375 -0.00390625 0.09375 -0.015625 C 0.09375 -0.0351562 0.0976562 -0.046875 0.109375 -0.046875 C 0.171875 -0.046875 0.21875 -0.0507812 0.25 -0.0625 C 0.28125 -0.0703125 0.300781 -0.09375 0.3125 -0.125 C 0.332031 -0.164062 0.34375 -0.222656 0.34375 -0.296875 L 0.34375 -1.40625 C 0.34375 -1.476562 0.335938 -1.53125 0.328125 -1.5625 C 0.316406 -1.59375 0.296875 -1.613281 0.265625 -1.625 C 0.234375 -1.644531 0.179688 -1.65625 0.109375 -1.65625 C 0.109375 -1.65625 0.109375 -1.660156 0.109375 -1.671875 C 0.109375 -1.691406 0.109375 -1.703125 0.109375 -1.703125 L 0.296875 -1.6875 C 0.390625 -1.6875 0.46875 -1.6875 0.53125 -1.6875 C 0.570312 -1.6875 0.609375 -1.6875 0.640625 -1.6875 C 0.679688 -1.6875 0.71875 -1.691406 0.75 -1.703125 C 0.832031 -1.703125 0.910156 -1.703125 0.984375 -1.703125 C 1.171875 -1.703125 1.3125 -1.671875 1.40625 -1.609375 C 1.507812 -1.554688 1.5625 -1.472656 1.5625 -1.359375 C 1.5625 -1.265625 1.53125 -1.175781 1.46875 -1.09375 C 1.40625 -1.007812 1.320312 -0.945312 1.21875 -0.90625 C 1.34375 -0.675781 1.453125 -0.5 1.546875 -0.375 C 1.648438 -0.257812 1.738281 -0.175781 1.8125 -0.125 C 1.882812 -0.0703125 1.960938 -0.046875 2.046875 -0.046875 Z M 0.71875 -0.875 C 0.738281 -0.875 0.769531 -0.875 0.8125 -0.875 C 0.945312 -0.875 1.039062 -0.90625 1.09375 -0.96875 C 1.144531 -1.03125 1.171875 -1.128906 1.171875 -1.265625 C 1.171875 -1.515625 1.078125 -1.640625 0.890625 -1.640625 C 0.835938 -1.640625 0.800781 -1.628906 0.78125 -1.609375 C 0.757812 -1.597656 0.742188 -1.578125 0.734375 -1.546875 C 0.722656 -1.515625 0.71875 -1.460938 0.71875 -1.390625 Z M 0.71875 -0.875 "/></g></g></g><g fill="#000000" fill-opacity="1"><g transform="translate(35.953716, 25.544039)"><g><path d="M 2.015625 -0.046875 C 2.023438 -0.046875 2.03125 -0.0351562 2.03125 -0.015625 C 2.03125 -0.00390625 2.023438 0 2.015625 0 C 1.960938 0 1.890625 0 1.796875 0 C 1.679688 -0.0078125 1.601562 -0.015625 1.5625 -0.015625 C 1.519531 -0.015625 1.457031 -0.0078125 1.375 0 C 1.289062 0 1.234375 0 1.203125 0 C 1.191406 0 1.1875 -0.00390625 1.1875 -0.015625 C 1.1875 -0.0351562 1.191406 -0.046875 1.203125 -0.046875 C 1.253906 -0.046875 1.289062 -0.0507812 1.3125 -0.0625 C 1.34375 -0.0703125 1.359375 -0.09375 1.359375 -0.125 C 1.359375 -0.15625 1.335938 -0.210938 1.296875 -0.296875 L 1.078125 -0.765625 L 0.65625 -0.765625 L 0.515625 -0.453125 C 0.472656 -0.347656 0.453125 -0.265625 0.453125 -0.203125 C 0.453125 -0.148438 0.472656 -0.109375 0.515625 -0.078125 C 0.554688 -0.0546875 0.617188 -0.046875 0.703125 -0.046875 C 0.710938 -0.046875 0.71875 -0.0351562 0.71875 -0.015625 C 0.71875 -0.00390625 0.710938 0 0.703125 0 C 0.671875 0 0.625 0 0.5625 0 C 0.488281 -0.0078125 0.425781 -0.015625 0.375 -0.015625 C 0.3125 -0.015625 0.238281 -0.0078125 0.15625 0 C 0.0820312 0 0.0234375 0 -0.015625 0 C -0.0351562 0 -0.046875 -0.00390625 -0.046875 -0.015625 C -0.046875 -0.0351562 -0.0351562 -0.046875 -0.015625 -0.046875 C 0.0546875 -0.046875 0.113281 -0.0546875 0.15625 -0.078125 C 0.207031 -0.0976562 0.25 -0.140625 0.28125 -0.203125 C 0.320312 -0.265625 0.367188 -0.359375 0.421875 -0.484375 L 0.96875 -1.75 C 0.976562 -1.757812 0.984375 -1.765625 0.984375 -1.765625 C 0.992188 -1.765625 1.003906 -1.757812 1.015625 -1.75 L 1.59375 -0.5 C 1.65625 -0.363281 1.707031 -0.265625 1.75 -0.203125 C 1.789062 -0.140625 1.828125 -0.0976562 1.859375 -0.078125 C 1.898438 -0.0546875 1.953125 -0.046875 2.015625 -0.046875 Z M 0.6875 -0.859375 L 1.03125 -0.859375 L 0.859375 -1.25 Z M 0.6875 -0.859375 "/></g></g></g><g fill="#000000" fill-opacity="1"><g transform="translate(39.454033, 25.544039)"><g/></g></g><g fill="#000000" fill-opacity="1"><g transform="translate(41.789043, 25.544039)"><g><path d="M 1 0.015625 C 0.9375 0.015625 0.863281 0.0078125 0.78125 0 C 0.75 0 0.710938 0 0.671875 0 C 0.628906 0 0.582031 0 0.53125 0 L 0.296875 0 C 0.242188 0 0.179688 0 0.109375 0 C 0.0976562 0 0.09375 -0.00390625 0.09375 -0.015625 C 0.09375 -0.0351562 0.0976562 -0.046875 0.109375 -0.046875 C 0.179688 -0.046875 0.234375 -0.0507812 0.265625 -0.0625 C 0.296875 -0.0703125 0.316406 -0.09375 0.328125 -0.125 C 0.335938 -0.164062 0.34375 -0.222656 0.34375 -0.296875 L 0.34375 -1.40625 C 0.34375 -1.476562 0.335938 -1.53125 0.328125 -1.5625 C 0.316406 -1.59375 0.296875 -1.613281 0.265625 -1.625 C 0.234375 -1.644531 0.179688 -1.65625 0.109375 -1.65625 C 0.109375 -1.65625 0.109375 -1.660156 0.109375 -1.671875 C 0.109375 -1.691406 0.109375 -1.703125 0.109375 -1.703125 L 0.296875 -1.6875 C 0.390625 -1.6875 0.46875 -1.6875 0.53125 -1.6875 C 0.601562 -1.6875 0.675781 -1.691406 0.75 -1.703125 C 0.84375 -1.703125 0.914062 -1.703125 0.96875 -1.703125 C 1.164062 -1.703125 1.335938 -1.664062 1.484375 -1.59375 C 1.640625 -1.519531 1.753906 -1.421875 1.828125 -1.296875 C 1.910156 -1.171875 1.953125 -1.023438 1.953125 -0.859375 C 1.953125 -0.691406 1.910156 -0.539062 1.828125 -0.40625 C 1.742188 -0.269531 1.628906 -0.164062 1.484375 -0.09375 C 1.347656 -0.0195312 1.1875 0.015625 1 0.015625 Z M 0.96875 -0.0625 C 1.144531 -0.0625 1.28125 -0.125 1.375 -0.25 C 1.476562 -0.382812 1.53125 -0.570312 1.53125 -0.8125 C 1.53125 -1.050781 1.476562 -1.242188 1.375 -1.390625 C 1.28125 -1.546875 1.132812 -1.625 0.9375 -1.625 C 0.851562 -1.625 0.789062 -1.609375 0.75 -1.578125 C 0.71875 -1.546875 0.703125 -1.484375 0.703125 -1.390625 L 0.703125 -0.328125 C 0.703125 -0.234375 0.71875 -0.164062 0.75 -0.125 C 0.789062 -0.0820312 0.863281 -0.0625 0.96875 -0.0625 Z M 0.96875 -0.0625 "/></g></g></g><g fill="#000000" fill-opacity="1"><g transform="translate(45.329168, 25.544039)"><g><path d="M 1.515625 -0.484375 C 1.515625 -0.492188 1.519531 -0.5 1.53125 -0.5 C 1.539062 -0.5 1.546875 -0.492188 1.546875 -0.484375 C 1.535156 -0.304688 1.53125 -0.160156 1.53125 -0.046875 C 1.53125 -0.0351562 1.523438 -0.0234375 1.515625 -0.015625 C 1.503906 -0.00390625 1.488281 0 1.46875 0 L 0.109375 0 C 0.0976562 0 0.09375 -0.00390625 0.09375 -0.015625 C 0.09375 -0.0351562 0.0976562 -0.046875 0.109375 -0.046875 C 0.179688 -0.046875 0.234375 -0.0507812 0.265625 -0.0625 C 0.296875 -0.0703125 0.316406 -0.09375 0.328125 -0.125 C 0.335938 -0.164062 0.34375 -0.222656 0.34375 -0.296875 L 0.34375 -1.40625 C 0.34375 -1.476562 0.335938 -1.53125 0.328125 -1.5625 C 0.316406 -1.59375 0.289062 -1.613281 0.25 -1.625 C 0.21875 -1.644531 0.171875 -1.65625 0.109375 -1.65625 C 0.0976562 -1.65625 0.09375 -1.660156 0.09375 -1.671875 C 0.09375 -1.691406 0.0976562 -1.703125 0.109375 -1.703125 L 1.40625 -1.703125 C 1.425781 -1.703125 1.4375 -1.691406 1.4375 -1.671875 L 1.453125 -1.4375 C 1.453125 -1.394531 1.453125 -1.335938 1.453125 -1.265625 C 1.453125 -1.265625 1.441406 -1.265625 1.421875 -1.265625 C 1.410156 -1.265625 1.40625 -1.265625 1.40625 -1.265625 C 1.363281 -1.367188 1.296875 -1.457031 1.203125 -1.53125 C 1.109375 -1.613281 1.007812 -1.65625 0.90625 -1.65625 L 0.890625 -1.65625 C 0.835938 -1.65625 0.796875 -1.644531 0.765625 -1.625 C 0.742188 -1.613281 0.726562 -1.59375 0.71875 -1.5625 C 0.707031 -1.53125 0.703125 -1.476562 0.703125 -1.40625 L 0.703125 -0.90625 C 0.890625 -0.90625 1.023438 -0.910156 1.109375 -0.921875 C 1.191406 -0.941406 1.242188 -0.953125 1.265625 -0.953125 C 1.273438 -0.953125 1.28125 -0.925781 1.28125 -0.875 C 1.28125 -0.84375 1.273438 -0.816406 1.265625 -0.796875 C 1.265625 -0.785156 1.265625 -0.78125 1.265625 -0.78125 C 1.242188 -0.78125 1.1875 -0.785156 1.09375 -0.796875 C 1.007812 -0.804688 0.878906 -0.8125 0.703125 -0.8125 L 0.703125 -0.3125 C 0.703125 -0.238281 0.707031 -0.179688 0.71875 -0.140625 C 0.726562 -0.109375 0.742188 -0.0859375 0.765625 -0.078125 C 0.796875 -0.0664062 0.835938 -0.0625 0.890625 -0.0625 L 0.921875 -0.0625 C 1.035156 -0.0625 1.144531 -0.0976562 1.25 -0.171875 C 1.363281 -0.253906 1.453125 -0.359375 1.515625 -0.484375 Z M 1.515625 -0.484375 "/></g></g></g><g fill="#000000" fill-opacity="1"><g transform="translate(48.496541, 25.544039)"><g/></g></g><g fill="#000000" fill-opacity="1"><g transform="translate(50.831553, 25.544039)"><g><path d="M 1.109375 -1.734375 C 1.203125 -1.734375 1.300781 -1.722656 1.40625 -1.703125 C 1.507812 -1.691406 1.597656 -1.671875 1.671875 -1.640625 C 1.679688 -1.628906 1.6875 -1.617188 1.6875 -1.609375 C 1.695312 -1.597656 1.703125 -1.585938 1.703125 -1.578125 L 1.71875 -1.203125 C 1.71875 -1.191406 1.710938 -1.1875 1.703125 -1.1875 C 1.691406 -1.1875 1.6875 -1.191406 1.6875 -1.203125 C 1.59375 -1.359375 1.5 -1.472656 1.40625 -1.546875 C 1.3125 -1.617188 1.203125 -1.65625 1.078125 -1.65625 C 0.898438 -1.65625 0.765625 -1.585938 0.671875 -1.453125 C 0.585938 -1.316406 0.546875 -1.132812 0.546875 -0.90625 C 0.546875 -0.757812 0.566406 -0.617188 0.609375 -0.484375 C 0.648438 -0.347656 0.710938 -0.238281 0.796875 -0.15625 C 0.890625 -0.0703125 1.007812 -0.03125 1.15625 -0.03125 C 1.28125 -0.03125 1.382812 -0.0664062 1.46875 -0.140625 C 1.550781 -0.210938 1.632812 -0.332031 1.71875 -0.5 C 1.71875 -0.507812 1.722656 -0.515625 1.734375 -0.515625 C 1.753906 -0.515625 1.765625 -0.507812 1.765625 -0.5 L 1.734375 -0.125 C 1.722656 -0.101562 1.71875 -0.0859375 1.71875 -0.078125 C 1.71875 -0.0664062 1.703125 -0.0546875 1.671875 -0.046875 C 1.492188 0.015625 1.300781 0.046875 1.09375 0.046875 C 0.863281 0.046875 0.675781 0 0.53125 -0.09375 C 0.382812 -0.1875 0.273438 -0.300781 0.203125 -0.4375 C 0.140625 -0.570312 0.109375 -0.710938 0.109375 -0.859375 C 0.109375 -1.023438 0.148438 -1.175781 0.234375 -1.3125 C 0.328125 -1.445312 0.445312 -1.550781 0.59375 -1.625 C 0.75 -1.695312 0.921875 -1.734375 1.109375 -1.734375 Z M 1.109375 -1.734375 "/></g></g></g><g fill="#000000" fill-opacity="1"><g transform="translate(54.237778, 25.544039)"><g><path d="M 2.046875 -0.046875 C 2.054688 -0.046875 2.0625 -0.0351562 2.0625 -0.015625 C 2.0625 -0.00390625 2.054688 0 2.046875 0 L 1.453125 0 C 1.421875 0 1.359375 -0.0703125 1.265625 -0.21875 C 1.171875 -0.363281 1.0625 -0.5625 0.9375 -0.8125 C 0.882812 -0.8125 0.832031 -0.8125 0.78125 -0.8125 L 0.71875 -0.8125 L 0.71875 -0.296875 C 0.71875 -0.222656 0.722656 -0.164062 0.734375 -0.125 C 0.742188 -0.09375 0.765625 -0.0703125 0.796875 -0.0625 C 0.828125 -0.0507812 0.875 -0.046875 0.9375 -0.046875 C 0.945312 -0.046875 0.953125 -0.0351562 0.953125 -0.015625 C 0.953125 -0.00390625 0.945312 0 0.9375 0 C 0.863281 0 0.804688 0 0.765625 0 L 0.296875 0 C 0.242188 0 0.179688 0 0.109375 0 C 0.0976562 0 0.09375 -0.00390625 0.09375 -0.015625 C 0.09375 -0.0351562 0.0976562 -0.046875 0.109375 -0.046875 C 0.171875 -0.046875 0.21875 -0.0507812 0.25 -0.0625 C 0.28125 -0.0703125 0.300781 -0.09375 0.3125 -0.125 C 0.332031 -0.164062 0.34375 -0.222656 0.34375 -0.296875 L 0.34375 -1.40625 C 0.34375 -1.476562 0.335938 -1.53125 0.328125 -1.5625 C 0.316406 -1.59375 0.296875 -1.613281 0.265625 -1.625 C 0.234375 -1.644531 0.179688 -1.65625 0.109375 -1.65625 C 0.109375 -1.65625 0.109375 -1.660156 0.109375 -1.671875 C 0.109375 -1.691406 0.109375 -1.703125 0.109375 -1.703125 L 0.296875 -1.6875 C 0.390625 -1.6875 0.46875 -1.6875 0.53125 -1.6875 C 0.570312 -1.6875 0.609375 -1.6875 0.640625 -1.6875 C 0.679688 -1.6875 0.71875 -1.691406 0.75 -1.703125 C 0.832031 -1.703125 0.910156 -1.703125 0.984375 -1.703125 C 1.171875 -1.703125 1.3125 -1.671875 1.40625 -1.609375 C 1.507812 -1.554688 1.5625 -1.472656 1.5625 -1.359375 C 1.5625 -1.265625 1.53125 -1.175781 1.46875 -1.09375 C 1.40625 -1.007812 1.320312 -0.945312 1.21875 -0.90625 C 1.34375 -0.675781 1.453125 -0.5 1.546875 -0.375 C 1.648438 -0.257812 1.738281 -0.175781 1.8125 -0.125 C 1.882812 -0.0703125 1.960938 -0.046875 2.046875 -0.046875 Z M 0.71875 -0.875 C 0.738281 -0.875 0.769531 -0.875 0.8125 -0.875 C 0.945312 -0.875 1.039062 -0.90625 1.09375 -0.96875 C 1.144531 -1.03125 1.171875 -1.128906 1.171875 -1.265625 C 1.171875 -1.515625 1.078125 -1.640625 0.890625 -1.640625 C 0.835938 -1.640625 0.800781 -1.628906 0.78125 -1.609375 C 0.757812 -1.597656 0.742188 -1.578125 0.734375 -1.546875 C 0.722656 -1.515625 0.71875 -1.460938 0.71875 -1.390625 Z M 0.71875 -0.875 "/></g></g></g><g fill="#000000" fill-opacity="1"><g transform="translate(57.705526, 25.544039)"><g><path d="M 1.515625 -0.484375 C 1.515625 -0.492188 1.519531 -0.5 1.53125 -0.5 C 1.539062 -0.5 1.546875 -0.492188 1.546875 -0.484375 C 1.535156 -0.304688 1.53125 -0.160156 1.53125 -0.046875 C 1.53125 -0.0351562 1.523438 -0.0234375 1.515625 -0.015625 C 1.503906 -0.00390625 1.488281 0 1.46875 0 L 0.109375 0 C 0.0976562 0 0.09375 -0.00390625 0.09375 -0.015625 C 0.09375 -0.0351562 0.0976562 -0.046875 0.109375 -0.046875 C 0.179688 -0.046875 0.234375 -0.0507812 0.265625 -0.0625 C 0.296875 -0.0703125 0.316406 -0.09375 0.328125 -0.125 C 0.335938 -0.164062 0.34375 -0.222656 0.34375 -0.296875 L 0.34375 -1.40625 C 0.34375 -1.476562 0.335938 -1.53125 0.328125 -1.5625 C 0.316406 -1.59375 0.289062 -1.613281 0.25 -1.625 C 0.21875 -1.644531 0.171875 -1.65625 0.109375 -1.65625 C 0.0976562 -1.65625 0.09375 -1.660156 0.09375 -1.671875 C 0.09375 -1.691406 0.0976562 -1.703125 0.109375 -1.703125 L 1.40625 -1.703125 C 1.425781 -1.703125 1.4375 -1.691406 1.4375 -1.671875 L 1.453125 -1.4375 C 1.453125 -1.394531 1.453125 -1.335938 1.453125 -1.265625 C 1.453125 -1.265625 1.441406 -1.265625 1.421875 -1.265625 C 1.410156 -1.265625 1.40625 -1.265625 1.40625 -1.265625 C 1.363281 -1.367188 1.296875 -1.457031 1.203125 -1.53125 C 1.109375 -1.613281 1.007812 -1.65625 0.90625 -1.65625 L 0.890625 -1.65625 C 0.835938 -1.65625 0.796875 -1.644531 0.765625 -1.625 C 0.742188 -1.613281 0.726562 -1.59375 0.71875 -1.5625 C 0.707031 -1.53125 0.703125 -1.476562 0.703125 -1.40625 L 0.703125 -0.90625 C 0.890625 -0.90625 1.023438 -0.910156 1.109375 -0.921875 C 1.191406 -0.941406 1.242188 -0.953125 1.265625 -0.953125 C 1.273438 -0.953125 1.28125 -0.925781 1.28125 -0.875 C 1.28125 -0.84375 1.273438 -0.816406 1.265625 -0.796875 C 1.265625 -0.785156 1.265625 -0.78125 1.265625 -0.78125 C 1.242188 -0.78125 1.1875 -0.785156 1.09375 -0.796875 C 1.007812 -0.804688 0.878906 -0.8125 0.703125 -0.8125 L 0.703125 -0.3125 C 0.703125 -0.238281 0.707031 -0.179688 0.71875 -0.140625 C 0.726562 -0.109375 0.742188 -0.0859375 0.765625 -0.078125 C 0.796875 -0.0664062 0.835938 -0.0625 0.890625 -0.0625 L 0.921875 -0.0625 C 1.035156 -0.0625 1.144531 -0.0976562 1.25 -0.171875 C 1.363281 -0.253906 1.453125 -0.359375 1.515625 -0.484375 Z M 1.515625 -0.484375 "/></g></g></g><g fill="#000000" fill-opacity="1"><g transform="translate(60.872899, 25.544039)"><g><path d="M 1 0.015625 C 0.9375 0.015625 0.863281 0.0078125 0.78125 0 C 0.75 0 0.710938 0 0.671875 0 C 0.628906 0 0.582031 0 0.53125 0 L 0.296875 0 C 0.242188 0 0.179688 0 0.109375 0 C 0.0976562 0 0.09375 -0.00390625 0.09375 -0.015625 C 0.09375 -0.0351562 0.0976562 -0.046875 0.109375 -0.046875 C 0.179688 -0.046875 0.234375 -0.0507812 0.265625 -0.0625 C 0.296875 -0.0703125 0.316406 -0.09375 0.328125 -0.125 C 0.335938 -0.164062 0.34375 -0.222656 0.34375 -0.296875 L 0.34375 -1.40625 C 0.34375 -1.476562 0.335938 -1.53125 0.328125 -1.5625 C 0.316406 -1.59375 0.296875 -1.613281 0.265625 -1.625 C 0.234375 -1.644531 0.179688 -1.65625 0.109375 -1.65625 C 0.109375 -1.65625 0.109375 -1.660156 0.109375 -1.671875 C 0.109375 -1.691406 0.109375 -1.703125 0.109375 -1.703125 L 0.296875 -1.6875 C 0.390625 -1.6875 0.46875 -1.6875 0.53125 -1.6875 C 0.601562 -1.6875 0.675781 -1.691406 0.75 -1.703125 C 0.84375 -1.703125 0.914062 -1.703125 0.96875 -1.703125 C 1.164062 -1.703125 1.335938 -1.664062 1.484375 -1.59375 C 1.640625 -1.519531 1.753906 -1.421875 1.828125 -1.296875 C 1.910156 -1.171875 1.953125 -1.023438 1.953125 -0.859375 C 1.953125 -0.691406 1.910156 -0.539062 1.828125 -0.40625 C 1.742188 -0.269531 1.628906 -0.164062 1.484375 -0.09375 C 1.347656 -0.0195312 1.1875 0.015625 1 0.015625 Z M 0.96875 -0.0625 C 1.144531 -0.0625 1.28125 -0.125 1.375 -0.25 C 1.476562 -0.382812 1.53125 -0.570312 1.53125 -0.8125 C 1.53125 -1.050781 1.476562 -1.242188 1.375 -1.390625 C 1.28125 -1.546875 1.132812 -1.625 0.9375 -1.625 C 0.851562 -1.625 0.789062 -1.609375 0.75 -1.578125 C 0.71875 -1.546875 0.703125 -1.484375 0.703125 -1.390625 L 0.703125 -0.328125 C 0.703125 -0.234375 0.71875 -0.164062 0.75 -0.125 C 0.789062 -0.0820312 0.863281 -0.0625 0.96875 -0.0625 Z M 0.96875 -0.0625 "/></g></g></g><g fill="#000000" fill-opacity="1"><g transform="translate(64.413024, 25.544039)"><g><path d="M 0.734375 -0.296875 C 0.734375 -0.222656 0.738281 -0.164062 0.75 -0.125 C 0.757812 -0.09375 0.78125 -0.0703125 0.8125 -0.0625 C 0.84375 -0.0507812 0.894531 -0.046875 0.96875 -0.046875 C 0.96875 -0.046875 0.96875 -0.0351562 0.96875 -0.015625 C 0.96875 -0.00390625 0.96875 0 0.96875 0 C 0.894531 0 0.835938 0 0.796875 0 L 0.3125 0 C 0.269531 0 0.207031 0 0.125 0 C 0.125 0 0.125 -0.00390625 0.125 -0.015625 C 0.125 -0.0351562 0.125 -0.046875 0.125 -0.046875 C 0.195312 -0.046875 0.25 -0.0507812 0.28125 -0.0625 C 0.3125 -0.0703125 0.332031 -0.09375 0.34375 -0.125 C 0.363281 -0.164062 0.375 -0.222656 0.375 -0.296875 L 0.375 -1.40625 C 0.375 -1.476562 0.363281 -1.53125 0.34375 -1.5625 C 0.332031 -1.59375 0.3125 -1.613281 0.28125 -1.625 C 0.25 -1.644531 0.195312 -1.65625 0.125 -1.65625 C 0.125 -1.65625 0.125 -1.660156 0.125 -1.671875 C 0.125 -1.691406 0.125 -1.703125 0.125 -1.703125 L 0.3125 -1.6875 C 0.40625 -1.6875 0.484375 -1.6875 0.546875 -1.6875 C 0.609375 -1.6875 0.691406 -1.6875 0.796875 -1.6875 L 0.96875 -1.703125 C 0.96875 -1.703125 0.96875 -1.691406 0.96875 -1.671875 C 0.96875 -1.660156 0.96875 -1.65625 0.96875 -1.65625 C 0.894531 -1.65625 0.84375 -1.644531 0.8125 -1.625 C 0.78125 -1.613281 0.757812 -1.585938 0.75 -1.546875 C 0.738281 -1.515625 0.734375 -1.460938 0.734375 -1.390625 Z M 0.734375 -0.296875 "/></g></g></g><g fill="#000000" fill-opacity="1"><g transform="translate(66.997744, 25.544039)"><g><path d="M 0.59375 -1.625 C 0.5 -1.625 0.410156 -1.582031 0.328125 -1.5 C 0.242188 -1.425781 0.175781 -1.320312 0.125 -1.1875 C 0.125 -1.1875 0.117188 -1.1875 0.109375 -1.1875 C 0.0976562 -1.1875 0.09375 -1.1875 0.09375 -1.1875 C 0.101562 -1.269531 0.113281 -1.375 0.125 -1.5 C 0.132812 -1.625 0.140625 -1.71875 0.140625 -1.78125 C 0.140625 -1.789062 0.144531 -1.796875 0.15625 -1.796875 C 0.175781 -1.796875 0.1875 -1.789062 0.1875 -1.78125 C 0.1875 -1.75 0.203125 -1.726562 0.234375 -1.71875 C 0.273438 -1.707031 0.320312 -1.703125 0.375 -1.703125 C 0.582031 -1.703125 0.765625 -1.703125 0.921875 -1.703125 L 1.234375 -1.703125 C 1.273438 -1.703125 1.332031 -1.703125 1.40625 -1.703125 C 1.5 -1.703125 1.566406 -1.707031 1.609375 -1.71875 C 1.660156 -1.726562 1.691406 -1.753906 1.703125 -1.796875 C 1.703125 -1.796875 1.707031 -1.796875 1.71875 -1.796875 C 1.738281 -1.796875 1.75 -1.796875 1.75 -1.796875 L 1.734375 -1.609375 C 1.722656 -1.398438 1.71875 -1.257812 1.71875 -1.1875 C 1.71875 -1.1875 1.707031 -1.1875 1.6875 -1.1875 C 1.675781 -1.1875 1.671875 -1.1875 1.671875 -1.1875 C 1.660156 -1.269531 1.628906 -1.34375 1.578125 -1.40625 C 1.535156 -1.46875 1.484375 -1.519531 1.421875 -1.5625 C 1.367188 -1.601562 1.3125 -1.625 1.25 -1.625 C 1.195312 -1.625 1.160156 -1.609375 1.140625 -1.578125 C 1.117188 -1.546875 1.109375 -1.488281 1.109375 -1.40625 L 1.109375 -0.296875 C 1.109375 -0.222656 1.113281 -0.164062 1.125 -0.125 C 1.144531 -0.09375 1.171875 -0.0703125 1.203125 -0.0625 C 1.242188 -0.0507812 1.300781 -0.046875 1.375 -0.046875 C 1.382812 -0.046875 1.390625 -0.0351562 1.390625 -0.015625 C 1.390625 -0.00390625 1.382812 0 1.375 0 C 1.300781 0 1.238281 0 1.1875 0 L 0.65625 0 C 0.601562 0 0.535156 0 0.453125 0 C 0.453125 0 0.453125 -0.00390625 0.453125 -0.015625 C 0.453125 -0.0351562 0.453125 -0.046875 0.453125 -0.046875 C 0.535156 -0.046875 0.59375 -0.0507812 0.625 -0.0625 C 0.664062 -0.0703125 0.691406 -0.09375 0.703125 -0.125 C 0.722656 -0.164062 0.734375 -0.222656 0.734375 -0.296875 L 0.734375 -1.40625 C 0.734375 -1.5 0.722656 -1.554688 0.703125 -1.578125 C 0.691406 -1.609375 0.65625 -1.625 0.59375 -1.625 Z M 0.59375 -1.625 "/></g></g></g><g fill="#000000" fill-opacity="1"><g transform="translate(70.302638, 25.544039)"><g><path d="M 1 0.046875 C 0.820312 0.046875 0.664062 0.00390625 0.53125 -0.078125 C 0.394531 -0.160156 0.289062 -0.269531 0.21875 -0.40625 C 0.144531 -0.539062 0.109375 -0.6875 0.109375 -0.84375 C 0.109375 -1.03125 0.15625 -1.191406 0.25 -1.328125 C 0.34375 -1.460938 0.460938 -1.5625 0.609375 -1.625 C 0.765625 -1.695312 0.921875 -1.734375 1.078125 -1.734375 C 1.242188 -1.734375 1.394531 -1.691406 1.53125 -1.609375 C 1.664062 -1.523438 1.769531 -1.414062 1.84375 -1.28125 C 1.914062 -1.15625 1.953125 -1.015625 1.953125 -0.859375 C 1.953125 -0.703125 1.90625 -0.550781 1.8125 -0.40625 C 1.726562 -0.269531 1.613281 -0.160156 1.46875 -0.078125 C 1.332031 0.00390625 1.175781 0.046875 1 0.046875 Z M 1.078125 -0.046875 C 1.210938 -0.046875 1.320312 -0.109375 1.40625 -0.234375 C 1.488281 -0.367188 1.53125 -0.554688 1.53125 -0.796875 C 1.53125 -0.953125 1.503906 -1.09375 1.453125 -1.21875 C 1.410156 -1.351562 1.34375 -1.457031 1.25 -1.53125 C 1.164062 -1.613281 1.066406 -1.65625 0.953125 -1.65625 C 0.804688 -1.65625 0.695312 -1.59375 0.625 -1.46875 C 0.550781 -1.351562 0.515625 -1.179688 0.515625 -0.953125 C 0.515625 -0.785156 0.539062 -0.628906 0.59375 -0.484375 C 0.644531 -0.347656 0.710938 -0.238281 0.796875 -0.15625 C 0.878906 -0.0820312 0.972656 -0.046875 1.078125 -0.046875 Z M 1.078125 -0.046875 "/></g></g></g></svg>