<svg xmlns="http://www.w3.org/2000/svg" xmlns:xlink="http://www.w3.org/1999/xlink" width="80" zoomAndPan="magnify" viewBox="0 0 60 60" height="80" preserveAspectRatio="xMidYMid meet" version="1.0"><defs><clipPath id="0519f0a4a1"><path d="M 8.070312 8.070312 L 53.820312 8.070312 L 53.820312 53.820312 L 8.070312 53.820312 Z M 8.070312 8.070312 " clip-rule="nonzero"/></clipPath><clipPath id="7061f70bbc"><path d="M 18 16.054688 L 44 16.054688 L 44 34 L 18 34 Z M 18 16.054688 " clip-rule="nonzero"/></clipPath><clipPath id="08c248ed10"><path d="M 18 29 L 44 29 L 44 46.054688 L 18 46.054688 Z M 18 29 " clip-rule="nonzero"/></clipPath></defs><g clip-path="url(#0519f0a4a1)"><path fill="#000000" d="M 53.820312 30.945312 C 53.820312 31.695312 53.785156 32.441406 53.710938 33.1875 C 53.636719 33.933594 53.527344 34.675781 53.382812 35.410156 C 53.234375 36.144531 53.054688 36.871094 52.835938 37.585938 C 52.617188 38.304688 52.367188 39.007812 52.078125 39.699219 C 51.792969 40.390625 51.472656 41.070312 51.121094 41.730469 C 50.765625 42.390625 50.382812 43.03125 49.964844 43.65625 C 49.550781 44.277344 49.105469 44.878906 48.628906 45.457031 C 48.152344 46.035156 47.652344 46.589844 47.121094 47.121094 C 46.589844 47.652344 46.035156 48.152344 45.457031 48.628906 C 44.878906 49.105469 44.277344 49.550781 43.65625 49.964844 C 43.03125 50.382812 42.390625 50.765625 41.730469 51.121094 C 41.070312 51.472656 40.390625 51.792969 39.699219 52.078125 C 39.007812 52.367188 38.304688 52.617188 37.585938 52.835938 C 36.871094 53.054688 36.144531 53.234375 35.410156 53.382812 C 34.675781 53.527344 33.933594 53.636719 33.1875 53.710938 C 32.441406 53.785156 31.695312 53.820312 30.945312 53.820312 C 30.195312 53.820312 29.449219 53.785156 28.703125 53.710938 C 27.957031 53.636719 27.21875 53.527344 26.484375 53.382812 C 25.75 53.234375 25.023438 53.054688 24.304688 52.835938 C 23.589844 52.617188 22.882812 52.367188 22.191406 52.078125 C 21.5 51.792969 20.824219 51.472656 20.164062 51.121094 C 19.503906 50.765625 18.859375 50.382812 18.238281 49.964844 C 17.613281 49.550781 17.011719 49.105469 16.433594 48.628906 C 15.855469 48.152344 15.300781 47.652344 14.769531 47.121094 C 14.242188 46.589844 13.738281 46.035156 13.261719 45.457031 C 12.789062 44.878906 12.34375 44.277344 11.925781 43.65625 C 11.511719 43.03125 11.125 42.390625 10.773438 41.730469 C 10.417969 41.070312 10.097656 40.390625 9.8125 39.699219 C 9.527344 39.007812 9.273438 38.304688 9.054688 37.585938 C 8.839844 36.871094 8.65625 36.144531 8.511719 35.410156 C 8.363281 34.675781 8.253906 33.933594 8.179688 33.1875 C 8.109375 32.441406 8.070312 31.695312 8.070312 30.945312 C 8.070312 30.195312 8.109375 29.449219 8.179688 28.703125 C 8.253906 27.957031 8.363281 27.21875 8.511719 26.484375 C 8.65625 25.75 8.839844 25.023438 9.054688 24.304688 C 9.273438 23.589844 9.527344 22.882812 9.8125 22.191406 C 10.097656 21.5 10.417969 20.824219 10.773438 20.164062 C 11.125 19.503906 11.511719 18.859375 11.925781 18.238281 C 12.34375 17.613281 12.789062 17.011719 13.261719 16.433594 C 13.738281 15.855469 14.242188 15.300781 14.769531 14.769531 C 15.300781 14.242188 15.855469 13.738281 16.433594 13.261719 C 17.011719 12.789062 17.613281 12.34375 18.238281 11.925781 C 18.859375 11.511719 19.503906 11.125 20.164062 10.773438 C 20.824219 10.417969 21.5 10.097656 22.191406 9.8125 C 22.882812 9.527344 23.589844 9.273438 24.304688 9.054688 C 25.023438 8.839844 25.75 8.65625 26.484375 8.511719 C 27.21875 8.363281 27.957031 8.253906 28.703125 8.179688 C 29.449219 8.109375 30.195312 8.070312 30.945312 8.070312 C 31.695312 8.070312 32.441406 8.109375 33.1875 8.179688 C 33.933594 8.253906 34.675781 8.363281 35.410156 8.511719 C 36.144531 8.65625 36.871094 8.839844 37.585938 9.054688 C 38.304688 9.273438 39.007812 9.527344 39.699219 9.8125 C 40.390625 10.097656 41.070312 10.417969 41.730469 10.773438 C 42.390625 11.125 43.03125 11.511719 43.65625 11.925781 C 44.277344 12.34375 44.878906 12.789062 45.457031 13.261719 C 46.035156 13.738281 46.589844 14.242188 47.121094 14.769531 C 47.652344 15.300781 48.152344 15.855469 48.628906 16.433594 C 49.105469 17.011719 49.550781 17.613281 49.964844 18.238281 C 50.382812 18.859375 50.765625 19.503906 51.121094 20.164062 C 51.472656 20.824219 51.792969 21.5 52.078125 22.191406 C 52.367188 22.882812 52.617188 23.589844 52.835938 24.304688 C 53.054688 25.023438 53.234375 25.75 53.382812 26.484375 C 53.527344 27.21875 53.636719 27.957031 53.710938 28.703125 C 53.785156 29.449219 53.820312 30.195312 53.820312 30.945312 Z M 53.820312 30.945312 " fill-opacity="1" fill-rule="nonzero"/></g><g clip-path="url(#7061f70bbc)"><path fill="#ffde59" d="M 28.59375 32.976562 C 28.59375 32.976562 24.257812 33.253906 21.347656 31.984375 C 16.558594 29.894531 16.125 24.316406 26.355469 23.480469 C 32.8125 22.953125 41.660156 22.078125 43.257812 16.054688 C 43.257812 16.054688 46.054688 23.703125 29.0625 27.429688 C 15.335938 30.4375 28.59375 32.976562 28.59375 32.976562 " fill-opacity="1" fill-rule="nonzero"/></g><g clip-path="url(#08c248ed10)"><path fill="#ffffff" d="M 33.472656 29.089844 C 33.472656 29.089844 37.808594 28.8125 40.71875 30.082031 C 45.507812 32.171875 45.941406 37.75 35.707031 38.585938 C 29.253906 39.113281 20.40625 39.984375 18.808594 46.011719 C 18.808594 46.011719 16.011719 38.359375 33.003906 34.636719 C 46.726562 31.628906 33.472656 29.089844 33.472656 29.089844 " fill-opacity="1" fill-rule="nonzero"/></g></svg>