<svg id="whatsapp" xmlns="http://www.w3.org/2000/svg" width="16.346" height="16.346" viewBox="0 0 16.346 16.346">
  <path id="Caminho_48367" data-name="Caminho 48367" d="M13.83,11.77l-.006.051c-1.5-.746-1.654-.846-1.848-.556-.134.2-.525.657-.643.791s-.238.143-.44.051A5.528,5.528,0,0,1,9.256,11.1a6.179,6.179,0,0,1-1.131-1.41c-.2-.345.218-.394.6-1.113a.374.374,0,0,0-.017-.357c-.051-.1-.458-1.1-.628-1.5s-.332-.347-.458-.347a1.014,1.014,0,0,0-.932.234c-1.1,1.208-.822,2.455.119,3.78,1.848,2.419,2.833,2.865,4.634,3.483a2.818,2.818,0,0,0,1.28.082,2.1,2.1,0,0,0,1.373-.971,1.686,1.686,0,0,0,.123-.971c-.05-.092-.184-.143-.388-.235Z" transform="translate(-1.906 -2.026)" fill="#fcb829"/>
  <path id="Caminho_48368" data-name="Caminho 48368" d="M13.976,2.349A8.175,8.175,0,0,0,.069,8.1a8.061,8.061,0,0,0,1.086,4.049L0,16.346,4.315,15.22A8.153,8.153,0,0,0,16.346,8.1a8.033,8.033,0,0,0-2.38-5.728Zm1.009,5.733A6.781,6.781,0,0,1,4.761,13.873l-.245-.146-2.554.664.684-2.483-.163-.255A6.755,6.755,0,0,1,13,3.321a6.666,6.666,0,0,1,1.981,4.761Z" transform="translate(0 0)" fill="#fcb829"/>
</svg>
