<svg xmlns="http://www.w3.org/2000/svg" width="20.7" height="20.794" viewBox="0 0 20.7 20.794">
  <path id="Page-1" d="M0,20.8H0l1.462-5.344a10.306,10.306,0,1,1,8.93,5.162h0a10.32,10.32,0,0,1-4.925-1.254Zm5.715-3.3h0l.313.186a8.568,8.568,0,1,0-2.894-2.82l.2.324-.867,3.162L5.714,17.5Zm7.354-2.239a3.236,3.236,0,0,1-1-.152,14.766,14.766,0,0,1-1.468-.542,11.141,11.141,0,0,1-4.353-3.823l-.041-.063A4.9,4.9,0,0,1,5.156,8.018a2.839,2.839,0,0,1,.85-2.094l.051-.055a.939.939,0,0,1,.687-.322c.165,0,.34,0,.493.009h.082c.159,0,.328.034.5.441.072.165.168.408.274.666V6.67c.222.54.473,1.152.516,1.239a.471.471,0,0,1,.022.451l-.035.072a1.458,1.458,0,0,1-.222.361c-.043.051-.088.1-.133.16a3.318,3.318,0,0,1-.253.289c-.124.124-.265.265-.113.526a7.72,7.72,0,0,0,1.433,1.784,6.689,6.689,0,0,0,1.9,1.2c.072.031.127.055.169.076a.637.637,0,0,0,.28.083.361.361,0,0,0,.277-.144c.118-.136.636-.741.815-1.011a.357.357,0,0,1,.3-.195.851.851,0,0,1,.277.066c.232.085,1.465.69,1.759.838l.144.072a.829.829,0,0,1,.352.231A2.151,2.151,0,0,1,15.434,14,2.643,2.643,0,0,1,13.7,15.225a4.2,4.2,0,0,1-.624.04Z" transform="translate(0 -0.006)" fill="#1b1b1b"/>
</svg>
